<?xml version="1.0" standalone="no"?>
<!DOCTYPE svg PUBLIC "-//W3C//DTD SVG 20010904//EN"
 "http://www.w3.org/TR/2001/REC-SVG-20010904/DTD/svg10.dtd">
<svg version="1.0" xmlns="http://www.w3.org/2000/svg"
 width="512.000000pt" height="512.000000pt" viewBox="0 0 512.000000 512.000000"
 preserveAspectRatio="xMidYMid meet">
<metadata>
Created by potrace 1.14, written by Peter Selinger 2001-2017
</metadata>
<g transform="translate(0.000000,512.000000) scale(0.100000,-0.100000)"
fill="#000000" stroke="none">
<path d="M1377 5063 c-4 -3 -7 -30 -7 -60 0 -48 -3 -55 -26 -65 -23 -11 -29
-8 -74 39 -59 62 -95 73 -148 46 -46 -24 -97 -105 -112 -178 l-11 -53 -27 25
c-21 19 -33 23 -57 19 -62 -12 -130 -14 -143 -4 -7 6 -16 8 -20 4 -4 -4 4 -16
17 -27 22 -18 22 -20 7 -42 -34 -48 -44 -57 -68 -57 -26 0 -67 -25 -57 -35 4
-3 18 0 33 6 24 11 29 10 59 -19 18 -18 40 -32 49 -32 9 0 18 -12 21 -30 9
-41 44 -48 107 -21 37 16 55 19 68 12 15 -9 15 -10 -4 -11 -38 0 -127 -53
-180 -108 -45 -45 -54 -51 -54 -33 0 39 -43 71 -96 71 -39 0 -51 -5 -79 -33
-38 -38 -59 -102 -49 -153 9 -50 62 -101 116 -111 l43 -9 3 -79 c2 -59 -1 -85
-12 -100 -13 -17 -15 -18 -16 -3 0 35 -70 33 -70 -3 0 -20 35 -44 50 -34 7 4
8 -13 4 -48 -4 -31 -4 -71 0 -91 7 -34 57 -96 78 -96 6 0 -1 9 -16 21 -45 35
-59 75 -53 145 4 36 15 76 26 95 12 19 21 43 21 54 1 14 5 11 15 -13 8 -18 48
-68 90 -112 59 -62 75 -85 70 -100 -3 -11 -2 -20 3 -20 6 0 14 12 19 26 9 26
9 26 32 7 l23 -19 -26 -31 c-25 -30 -44 -40 -116 -61 l-35 -11 40 6 c52 7 117
44 134 77 l14 25 30 -21 c41 -29 61 -81 48 -121 -12 -33 -6 -50 9 -27 13 19
13 72 0 104 -11 29 -14 30 100 -21 92 -40 144 -69 159 -87 10 -12 8 -17 -13
-31 -47 -31 -136 -17 -136 21 0 22 20 27 41 8 20 -18 27 -6 7 14 -32 32 -85
-8 -73 -55 3 -15 13 -36 22 -45 13 -15 13 -18 -6 -27 -11 -6 -30 -11 -43 -11
-38 -1 -95 -25 -181 -78 -92 -56 -127 -67 -174 -53 -21 6 -35 6 -39 0 -10 -17
26 -59 56 -66 32 -6 35 -10 21 -32 -6 -9 -18 -12 -32 -8 -12 3 -31 1 -42 -5
-16 -8 -22 -7 -29 6 -6 10 -22 16 -47 16 -24 0 -41 5 -44 14 -7 18 -41 26 -58
14 -11 -8 -12 -11 -1 -15 7 -3 25 -16 40 -30 18 -17 33 -22 49 -18 13 3 33 -1
47 -10 16 -11 33 -14 52 -8 16 4 35 6 43 4 7 -1 27 10 44 26 16 15 28 21 25
13 -4 -8 -9 -23 -13 -32 -5 -12 -3 -18 5 -18 7 0 19 8 26 18 13 16 13 16 14 0
0 -39 17 -15 32 45 14 60 15 61 26 35 6 -16 17 -28 23 -28 7 0 8 -7 4 -17 -31
-76 -20 -132 33 -168 42 -29 68 -31 99 -10 19 13 22 13 37 -10 22 -34 21 -35
-22 -35 -54 0 -136 44 -161 86 -11 19 -25 34 -31 34 -20 0 -9 -31 26 -70 67
-74 202 -102 291 -59 61 30 86 70 91 146 4 53 7 63 23 63 23 0 59 38 59 62 0
10 -8 26 -18 36 -17 17 -17 19 0 47 10 17 18 41 18 55 0 19 3 21 12 12 19 -19
53 -14 82 13 15 14 31 25 35 25 4 0 13 12 20 26 11 25 13 25 30 10 25 -23 30
-21 47 20 16 37 30 41 87 19 13 -5 17 -2 17 13 0 22 -53 72 -76 72 -8 0 -14 6
-14 14 0 24 -12 25 -90 10 -41 -8 -91 -14 -111 -14 -47 0 -66 -21 -53 -58 7
-21 16 -27 39 -27 23 0 30 5 30 19 0 11 -7 22 -15 24 -13 5 -13 3 -1 -11 11
-14 11 -18 -4 -24 -25 -9 -48 23 -34 48 7 14 21 19 50 19 74 0 125 -81 85
-136 -8 -10 -16 -17 -18 -14 -2 3 -8 14 -14 25 -6 11 -17 20 -25 20 -21 0 -23
-34 -4 -55 17 -18 16 -20 -9 -31 -22 -10 -29 -9 -45 5 -10 10 -22 32 -25 50
-3 17 -17 47 -30 66 -17 26 -22 44 -19 75 8 75 -55 135 -140 135 -45 0 -50 8
-27 38 11 13 20 33 20 43 0 22 12 24 42 8 20 -11 20 -11 -2 -31 -17 -16 -19
-23 -9 -34 15 -18 23 -18 65 2 29 14 32 19 23 36 -6 12 -17 17 -26 14 -9 -4
-21 1 -28 11 -11 15 -10 21 6 42 20 25 25 67 11 89 -11 17 -77 52 -98 52 -10
0 -34 18 -54 40 -25 27 -45 40 -63 40 -20 0 -27 5 -27 20 0 20 -36 43 -53 33
-4 -3 -14 1 -22 7 -11 9 -19 7 -40 -14 -29 -29 -35 -93 -10 -102 8 -4 13 -9
11 -13 -3 -4 -1 -13 4 -21 7 -12 16 -12 57 1 26 8 49 20 49 27 1 7 2 19 3 27
2 25 31 17 67 -19 31 -31 32 -36 22 -63 -7 -18 -23 -34 -39 -40 -16 -6 -34
-24 -41 -40 -7 -15 -13 -29 -14 -31 -5 -10 -54 24 -63 45 -15 33 -14 48 5 63
12 11 18 11 31 -2 16 -16 9 -43 -8 -32 -5 3 -7 10 -4 15 4 5 1 9 -5 9 -6 0
-10 -8 -8 -17 4 -24 42 -23 46 0 5 23 -15 47 -39 47 -20 0 -39 -28 -39 -59 0
-27 47 -81 71 -81 12 0 19 -7 19 -20 0 -29 -74 -29 -90 0 -16 31 -67 52 -113
48 -38 -4 -41 -2 -73 47 -31 47 -53 113 -54 161 0 15 8 24 27 29 43 11 77 40
101 89 20 39 26 45 42 36 65 -35 146 50 100 105 -25 30 -100 11 -100 -25 0
-46 38 -68 68 -38 13 13 -1 48 -20 48 -7 0 -6 -5 2 -15 20 -25 -4 -45 -27 -23
-13 14 -14 20 -3 32 23 29 80 14 80 -21 0 -23 -39 -53 -69 -53 -33 0 -61 30
-61 65 0 66 114 145 209 145 27 0 53 5 56 10 3 6 15 10 26 10 12 0 29 10 39
22 14 18 28 22 66 23 48 0 64 8 64 32 0 15 -74 6 -115 -14 -21 -11 -9 5 41 53
79 76 133 154 158 227 28 82 16 174 -17 140z m-169 -70 c39 -75 -1 -272 -64
-324 -16 -13 -17 -12 -10 6 19 45 19 175 1 236 -17 57 -17 60 0 79 22 25 61
26 73 3z m-77 -120 c14 -37 6 -149 -15 -193 -12 -27 -15 -29 -11 -9 6 35 -12
98 -41 136 -28 37 -30 56 -8 77 25 26 63 20 75 -11z m176 -23 c13 0 23 -4 23
-9 0 -19 -67 -95 -130 -150 -36 -30 -55 -44 -43 -31 29 33 60 104 74 168 10
50 11 52 32 37 12 -8 32 -15 44 -15z m-314 -87 c26 -42 57 -117 57 -136 -1 -6
-9 4 -20 24 -18 34 -76 92 -115 115 -25 14 -11 34 25 34 23 0 35 -8 53 -37z
m70 19 c23 -25 31 -72 22 -129 l-7 -48 -25 70 c-34 96 -39 125 -21 125 8 0 22
-8 31 -18z m-145 -36 c26 -14 62 -49 93 -91 7 -11 -5 -3 -29 18 -23 20 -62 42
-87 49 -25 7 -45 18 -45 25 0 17 34 17 68 -1z m25 -61 c44 -30 47 -38 10 -24
-14 5 -45 7 -68 4 -31 -5 -44 -3 -54 9 -35 42 53 50 112 11z m24 -46 c28 -10
27 -11 -31 -30 -32 -11 -65 -18 -72 -15 -14 6 -19 38 -7 49 10 11 79 8 110 -4z
m316 4 c-7 -2 -21 -2 -30 0 -10 3 -4 5 12 5 17 0 24 -2 18 -5z m-417 -154
c-32 -37 -40 -67 -28 -99 12 -33 1 -73 -21 -76 -9 -1 -15 2 -12 6 3 5 1 11 -4
14 -18 12 -23 -15 -6 -34 15 -17 16 -22 4 -36 -14 -17 -78 -48 -85 -42 -1 2 1
23 7 46 15 68 63 155 115 205 54 54 68 61 30 16z m-149 -11 c32 -30 32 -90 -2
-123 -39 -40 -91 -30 -119 23 -11 20 -15 22 -16 9 0 -10 11 -29 26 -43 20 -21
33 -25 65 -22 32 3 38 1 33 -12 -3 -8 -8 -32 -11 -52 -5 -32 -9 -38 -30 -38
-52 0 -109 46 -123 102 -23 85 36 178 113 178 28 0 48 -7 64 -22z m501 -390
c8 -8 9 -15 1 -25 -6 -7 -9 -20 -5 -28 8 -22 37 -18 43 5 7 28 23 14 23 -20 0
-34 -23 -60 -54 -60 -19 0 -26 9 -39 51 -10 28 -17 60 -17 70 0 21 29 26 48 7z
m-72 -45 c-10 -10 -19 5 -10 18 6 11 8 11 12 0 2 -7 1 -15 -2 -18z m96 2 c0
-5 -5 -11 -11 -13 -6 -2 -11 4 -11 13 0 9 5 15 11 13 6 -2 11 -8 11 -13z
m-595 -21 c3 -8 1 -20 -6 -27 -14 -14 -47 15 -37 32 10 16 36 13 43 -5z m463
-9 c0 -17 -47 -51 -57 -41 -7 7 36 56 49 56 4 0 8 -7 8 -15z m35 5 c14 -23
-51 -100 -85 -100 -20 0 -9 31 15 42 14 6 30 24 37 40 13 29 23 35 33 18z m45
-52 c0 -5 -7 -8 -15 -8 -17 0 -18 2 -9 25 5 13 8 14 15 3 5 -7 9 -16 9 -20z
m-273 -22 c15 -13 25 -27 22 -30 -9 -9 -76 13 -101 34 l-23 19 37 1 c25 0 46
-8 65 -24z m273 -21 c0 -8 -13 -29 -29 -47 l-28 -32 -33 21 -32 20 43 27 c49
29 79 33 79 11z m-110 -88 c-33 -11 -110 9 -110 28 0 24 80 24 111 0 l26 -20
-27 -8z m-120 33 c0 -5 -4 -10 -9 -10 -6 0 -13 5 -16 10 -3 6 1 10 9 10 9 0
16 -4 16 -10z m279 -46 c22 -3 51 -16 65 -29 26 -24 45 -90 30 -105 -5 -5 -32
6 -63 25 -30 19 -92 49 -137 67 l-83 33 37 12 c35 11 62 10 151 -3z m125 -228
c9 -19 16 -53 16 -76 0 -131 -126 -183 -195 -82 -32 46 -32 76 0 107 27 28 57
32 75 10 10 -12 9 -15 -5 -15 -14 0 -15 -3 -5 -15 16 -19 31 -19 56 -1 19 14
19 15 0 22 -11 4 -28 16 -39 27 -12 12 -28 17 -43 14 -13 -2 -24 -1 -24 3 0 4
17 10 39 14 21 3 49 14 62 25 28 22 40 16 63 -33z m134 -34 c2 -7 -3 -12 -12
-12 -9 0 -16 7 -16 16 0 17 22 14 28 -4z m-353 -84 c4 -18 11 -38 15 -43 6 -7
-5 -9 -31 -7 -42 4 -89 -18 -89 -42 0 -8 -8 -16 -17 -20 -10 -3 -24 -9 -30
-12 -18 -8 -16 21 4 63 17 37 93 93 124 93 12 0 20 -11 24 -32z m52 -85 l53
-27 -20 -20 c-11 -11 -30 -21 -42 -21 -34 0 -34 -30 0 -44 22 -9 28 -17 25
-32 -5 -16 -11 -19 -33 -14 -18 4 -33 1 -43 -10 -15 -14 -17 -14 -27 5 -25 46
-104 32 -98 -18 3 -30 37 -39 46 -12 5 13 3 13 -11 1 -14 -11 -18 -11 -23 4
-4 10 0 23 10 33 15 15 19 15 44 2 49 -28 38 -93 -18 -105 -83 -18 -141 90
-90 172 22 37 62 63 68 44 14 -41 65 -52 70 -15 2 16 -5 25 -27 34 -35 14 -39
25 -13 39 29 18 73 12 129 -16z m183 -24 c14 -25 -11 -69 -39 -69 -26 0 -55
35 -46 57 6 16 8 16 16 -4 5 -15 16 -23 31 -22 l23 0 -22 9 c-26 10 -29 20
-11 38 18 18 36 15 48 -9z m-283 -24 c3 -9 2 -19 -1 -23 -8 -8 -38 10 -44 26
-6 18 38 14 45 -3z m157 -10 c-9 -14 -21 -25 -27 -25 -6 0 0 11 13 25 13 14
25 25 27 25 2 0 -4 -11 -13 -25z m26 -5 c0 -5 -5 -10 -11 -10 -5 0 -7 5 -4 10
3 6 8 10 11 10 2 0 4 -4 4 -10z m-12 -52 c7 -7 12 -21 12 -32 0 -18 -1 -19
-20 -1 -20 18 -27 45 -12 45 4 0 13 -5 20 -12z"/>
<path d="M2592 4725 c-7 -14 -12 -33 -12 -41 0 -12 -7 -14 -29 -9 -23 5 -29 2
-34 -15 -6 -24 8 -71 35 -115 32 -53 19 -58 -24 -11 -62 67 -144 85 -103 23
15 -23 14 -25 -5 -30 -46 -12 -7 -142 52 -173 37 -19 61 -18 92 7 l27 22 69
-28 c61 -24 70 -26 95 -14 46 23 69 63 70 122 0 46 -2 52 -19 49 -14 -3 -17 1
-14 15 13 45 12 48 -9 51 -16 2 -39 -12 -78 -49 -46 -44 -54 -48 -46 -26 6 14
22 44 37 66 14 22 27 55 27 73 2 31 0 33 -29 30 -28 -3 -32 1 -47 38 -18 46
-39 51 -55 15z"/>
<path d="M1278 4565 c-32 -18 -64 -69 -94 -149 -13 -34 -23 -52 -24 -41 0 11
-5 27 -10 35 -7 12 -12 12 -22 2 -10 -10 -10 -14 1 -22 9 -5 16 -29 18 -61 1
-29 10 -64 19 -77 9 -14 20 -37 24 -51 l8 -26 2 25 c2 20 4 18 9 -10 5 -29 10
-35 31 -35 14 0 31 -6 38 -12 7 -7 20 -13 28 -13 8 0 14 -10 14 -26 0 -16 4
-23 11 -18 6 3 9 19 6 34 -9 42 2 72 24 67 11 -3 22 -1 25 4 3 5 -2 9 -10 9
-9 0 -16 9 -16 20 0 11 -4 20 -10 20 -5 0 -10 11 -10 24 0 16 -7 27 -20 31
-20 6 -19 9 15 46 32 36 40 59 36 99 -3 22 -40 50 -67 50 -37 0 -42 29 -11 54
43 35 34 47 -15 21z m30 -113 c27 11 34 10 42 -1 13 -23 0 -40 -36 -47 -18 -3
-54 -19 -78 -35 -31 -19 -48 -24 -52 -17 -4 6 -3 8 2 5 6 -3 10 9 10 27 0 18
6 46 13 64 l13 31 27 -20 c23 -17 30 -18 59 -7z m10 -90 c3 -20 -1 -22 -40
-22 -24 0 -50 -5 -58 -10 -10 -6 -3 -7 24 -3 31 5 38 3 34 -8 -3 -8 -23 -17
-46 -20 -31 -4 -39 -2 -32 6 6 7 8 14 5 17 -12 12 80 71 100 65 6 -2 11 -13
13 -25z m-8 -87 c20 -25 7 -26 -46 -5 l-49 19 41 1 c26 0 46 -6 54 -15z m-17
-29 c9 -7 17 -19 17 -26 0 -9 -8 -6 -23 8 -13 12 -27 22 -32 22 -5 0 1 -7 13
-16 22 -15 30 -44 12 -44 -12 0 -41 55 -33 64 10 9 26 7 46 -8z m-33 -57 c0
-6 -8 -9 -17 -7 -11 2 -20 17 -24 38 l-7 35 24 -28 c13 -15 24 -33 24 -38z"/>
<path d="M1225 4410 c-16 -16 -26 -32 -24 -35 3 -2 21 11 39 30 19 19 29 35
24 35 -6 0 -23 -13 -39 -30z"/>
<path d="M2033 4533 c-22 -8 -15 -36 7 -30 29 8 88 -13 93 -33 3 -13 18 -18
66 -22 70 -5 103 -23 41 -23 -47 0 -58 -9 -39 -31 8 -9 12 -27 11 -40 -3 -18
5 -29 30 -44 52 -32 106 -22 120 21 18 53 134 -160 174 -319 14 -53 30 -145
36 -204 6 -60 14 -108 18 -108 9 0 20 37 20 70 0 45 50 222 84 300 51 115 143
250 171 250 7 0 20 -9 30 -20 22 -25 86 -27 109 -4 9 8 16 26 16 39 0 12 7 25
15 29 24 9 17 35 -12 42 -25 7 -25 8 -8 15 11 4 29 5 40 2 31 -6 78 14 71 32
-4 11 3 15 29 15 41 0 55 18 29 37 -26 20 -93 9 -170 -27 -60 -27 -214 -159
-214 -183 0 -6 -11 -22 -24 -36 -41 -43 -94 -139 -121 -220 -14 -42 -30 -83
-36 -91 -18 -26 -3 104 15 132 14 22 15 27 2 37 -8 7 -23 11 -33 9 -16 -3 -18
-13 -15 -93 l2 -90 -38 110 c-91 259 -193 396 -343 465 -42 19 -144 26 -176
13z"/>
<path d="M2586 4352 c-8 -14 6 -142 17 -149 15 -9 28 20 22 51 -3 16 0 35 6
42 17 21 7 59 -18 62 -11 2 -24 -1 -27 -6z"/>
<path d="M1898 4266 c-88 -26 -138 -71 -138 -126 0 -29 11 -50 27 -50 11 0 13
7 8 31 -8 35 4 49 45 49 14 0 35 7 47 15 20 14 21 13 16 -6 -13 -47 47 -45
107 2 44 35 79 48 105 39 19 -7 19 -7 -2 -14 -28 -9 -85 -74 -77 -87 3 -6 19
-7 36 -4 26 6 29 5 24 -12 -10 -30 56 -83 102 -83 48 0 84 19 100 53 20 42 54
36 99 -18 34 -41 85 -126 79 -132 -1 -2 -20 6 -41 17 -49 25 -84 26 -91 3 -3
-10 -10 -25 -15 -33 -19 -31 -21 -42 -11 -52 7 -7 17 -5 33 6 62 43 142 -13
179 -125 8 -26 20 -47 25 -46 27 5 -29 214 -81 302 -82 138 -147 196 -284 255
-68 29 -219 37 -292 16z"/>
<path d="M3071 4255 c-143 -40 -298 -169 -365 -304 -38 -75 -76 -202 -76 -253
l0 -28 -75 0 c-60 0 -75 -3 -75 -15 0 -8 -7 -15 -16 -15 -23 0 -14 -43 11 -50
11 -3 20 -12 20 -20 0 -12 18 -16 94 -18 95 -3 133 8 101 28 -11 7 -7 10 16
10 32 0 45 14 37 38 -3 6 -11 12 -18 12 -7 0 -15 7 -19 15 -3 9 -18 15 -34 15
l-29 0 13 51 c18 69 43 110 83 133 30 17 39 18 79 7 24 -6 47 -10 49 -7 3 3
-3 25 -12 50 -20 53 -35 57 -97 25 -49 -25 -48 -17 8 67 37 55 72 86 111 98
18 6 26 1 42 -26 31 -52 39 -58 79 -58 50 1 117 58 107 90 -6 20 -4 21 24 15
26 -5 31 -3 31 11 0 10 -12 31 -27 46 -26 27 -26 28 -5 28 12 0 40 -11 61 -25
46 -31 94 -46 112 -35 10 7 11 14 0 37 l-13 28 30 -28 c16 -15 45 -30 65 -34
34 -5 53 -25 42 -43 -10 -16 13 -20 25 -5 17 21 -3 67 -46 105 -65 56 -230 84
-333 55z"/>
<path d="M2550 4186 c0 -21 23 -36 55 -36 31 0 55 15 55 35 0 5 -24 11 -55 11
-36 1 -55 -2 -55 -10z"/>
<path d="M3315 4033 c-36 -10 -66 -36 -87 -76 -17 -34 -20 -54 -16 -117 3 -42
12 -91 21 -109 22 -43 22 -42 -9 -31 -14 6 -54 10 -89 10 -81 0 -156 -37 -200
-99 -25 -36 -30 -54 -33 -117 -4 -68 -1 -81 28 -140 29 -59 37 -68 88 -92 65
-30 127 -33 184 -9 45 19 69 54 75 110 6 54 -25 100 -66 95 -40 -5 -40 -37 -1
-45 43 -8 48 -29 15 -64 -25 -25 -30 -27 -45 -14 -17 15 -27 12 -83 -28 -18
-13 -33 -16 -49 -11 -22 7 -22 8 10 21 34 14 39 22 21 40 -8 8 -8 13 0 17 6 4
11 26 11 50 0 34 -6 48 -30 71 -26 25 -34 27 -80 22 -57 -7 -59 -3 -31 58 10
24 35 52 61 70 40 27 50 30 126 30 57 0 87 -4 96 -14 11 -11 8 -12 -18 -6 -20
4 -46 0 -69 -9 -33 -14 -36 -19 -33 -48 2 -27 8 -34 29 -36 29 -3 54 20 45 43
-7 19 -26 20 -26 0 0 -8 -4 -15 -10 -15 -15 0 -12 16 6 31 12 10 24 10 60 1
54 -15 67 -15 59 -2 -8 13 1 13 26 0 34 -19 34 15 0 57 -16 21 -37 55 -46 76
-15 37 -15 37 9 37 39 0 63 30 69 83 5 47 4 47 -26 47 -29 0 -29 1 -14 18 10
10 17 25 17 33 0 8 5 20 12 27 17 17 48 15 48 -3 0 -8 -9 -15 -20 -15 -28 0
-25 -18 4 -26 34 -8 46 2 46 37 0 22 -6 32 -26 39 -27 11 -28 11 -59 3z"/>
<path d="M1842 4014 c-26 -18 -30 -65 -7 -84 32 -26 82 13 56 44 -11 13 -17
14 -30 4 -11 -8 -10 -6 2 8 18 19 19 19 38 -5 25 -30 26 -81 2 -81 -21 -1 -53
-59 -53 -96 0 -19 7 -29 30 -37 17 -6 30 -17 30 -23 0 -7 -16 -31 -35 -54 -20
-24 -34 -48 -32 -53 6 -18 53 -25 94 -14 46 12 93 3 93 -18 0 -8 -4 -15 -10
-15 -5 0 -10 7 -10 15 0 8 -9 15 -20 15 -31 0 -27 -47 5 -62 21 -9 28 -8 45 7
24 22 26 58 4 76 -9 7 -34 16 -57 19 l-42 6 49 9 c81 13 152 -9 208 -64 41
-41 69 -94 56 -106 -2 -3 -18 0 -34 7 -36 13 -77 5 -104 -22 -22 -22 -26 -70
-8 -88 9 -9 8 -16 -5 -30 -25 -27 -21 -42 13 -48 36 -8 40 -24 5 -24 -15 0
-41 15 -64 36 -26 23 -48 34 -62 32 -16 -2 -27 5 -38 23 -14 25 -13 28 15 52
22 19 26 28 18 37 -33 34 -81 -32 -71 -95 13 -80 93 -138 192 -138 94 0 154
56 177 165 24 116 -21 211 -126 266 -42 21 -65 26 -128 27 l-77 0 32 33 c17
18 41 32 54 32 13 0 23 4 23 9 0 17 41 23 71 11 26 -11 32 -10 53 9 12 11 28
21 34 21 16 0 15 -37 0 -43 -10 -4 -10 -7 -1 -17 17 -19 43 5 43 39 0 52 -46
68 -86 30 -22 -20 -23 -21 -52 -3 -29 16 -32 16 -56 0 -14 -9 -26 -21 -26 -26
0 -6 -11 -8 -24 -4 -18 4 -29 -1 -49 -27 l-25 -32 14 54 c8 29 14 73 14 97 0
106 -72 172 -138 126z"/>
<path d="M3686 3973 c-11 -11 -6 -23 9 -23 8 0 15 4 15 9 0 13 -16 22 -24 14z"/>
<path d="M1512 3877 c5 -90 18 -137 39 -137 12 0 3 147 -13 198 -19 63 -31 36
-26 -61z"/>
<path d="M768 3924 c-7 -16 -18 -33 -25 -37 -20 -12 -15 -62 7 -82 10 -9 31
-17 45 -17 52 0 84 55 48 83 -16 13 -17 12 -4 -4 23 -29 0 -67 -42 -67 -39 0
-57 15 -57 47 0 27 8 29 26 6 12 -17 14 -17 31 0 17 18 17 19 -6 38 -19 16
-21 22 -11 34 7 9 10 18 7 22 -4 3 -12 -7 -19 -23z m22 -55 c0 -11 -4 -17 -10
-14 -5 3 -10 13 -10 21 0 8 5 14 10 14 6 0 10 -9 10 -21z"/>
<path d="M3661 3898 c-16 -46 -26 -158 -14 -158 12 0 56 140 52 165 -6 31 -26
28 -38 -7z"/>
<path d="M3510 3873 c0 -20 13 -39 47 -70 49 -46 63 -52 63 -28 0 29 -24 66
-57 86 -18 11 -33 25 -33 30 0 5 -4 9 -10 9 -5 0 -10 -12 -10 -27z"/>
<path d="M1668 3860 c-14 -14 -40 -35 -57 -48 -17 -13 -31 -33 -31 -44 0 -11
3 -18 8 -16 4 2 21 10 37 17 76 33 80 36 83 70 5 45 -8 52 -40 21z"/>
<path d="M1354 3815 c-10 -24 15 -44 72 -59 27 -7 59 -16 72 -20 16 -5 22 -3
22 7 0 23 -33 45 -85 57 -27 6 -55 16 -62 22 -9 7 -14 6 -19 -7z"/>
<path d="M2916 3811 c-12 -13 -15 -27 -11 -40 7 -24 40 -45 55 -36 16 10 12
23 -10 30 -22 7 -28 35 -7 35 6 0 26 -9 42 -20 34 -23 61 -26 68 -7 3 9 13 8
41 -5 20 -10 45 -18 55 -18 10 0 24 -7 31 -15 13 -16 40 -20 40 -7 0 18 -47
52 -72 52 -14 0 -33 9 -43 20 -23 25 -37 25 -60 0 l-18 -20 -27 25 c-31 30
-61 32 -84 6z"/>
<path d="M3820 3796 c-8 -11 -24 -13 -59 -9 -43 5 -50 3 -69 -22 -22 -27 -20
-57 1 -36 6 6 28 11 48 11 63 0 108 24 109 58 0 16 -15 15 -30 -2z"/>
<path d="M748 3743 c7 -3 16 -2 19 1 4 3 -2 6 -13 5 -11 0 -14 -3 -6 -6z"/>
<path d="M3570 3725 c0 -8 -18 -24 -40 -35 -21 -11 -44 -29 -50 -40 -10 -18
-8 -20 19 -20 45 0 60 -9 76 -46 16 -39 25 -42 50 -14 24 27 41 25 71 -7 36
-39 53 -18 31 39 -9 24 -16 56 -14 73 2 26 -2 30 -33 35 -19 4 -45 12 -57 18
-30 16 -53 15 -53 -3z m100 -57 c0 -12 -18 -9 -50 7 -44 23 -36 36 10 17 22
-9 40 -20 40 -24z"/>
<path d="M954 3645 c-16 -24 -15 -26 7 -48 32 -32 53 -38 86 -26 23 7 28 16
30 44 3 34 -3 40 -34 36 -6 -1 -14 3 -18 9 -12 19 -54 11 -71 -15z"/>
<path d="M1788 3645 c-10 -22 -9 -32 3 -53 21 -38 64 -57 95 -43 33 15 30 38
-5 46 -33 7 -47 20 -52 49 -6 30 -27 30 -41 1z"/>
<path d="M3359 3630 c-7 -20 -22 -33 -45 -42 -41 -14 -44 -35 -8 -44 56 -14
111 32 98 83 -10 35 -34 37 -45 3z"/>
<path d="M4041 3619 c-16 -43 -56 -68 -169 -108 -144 -51 -217 -90 -292 -158
-33 -30 -60 -52 -60 -49 0 11 81 159 95 173 18 18 19 35 3 51 -13 13 -48 16
-49 5 0 -5 -1 -26 -3 -48 -3 -43 -40 -122 -80 -170 l-24 -30 10 48 c9 44 -1
124 -28 215 -5 17 -29 15 -48 -4 -22 -21 -20 -26 14 -62 39 -41 45 -72 30
-141 -11 -54 -50 -133 -70 -146 -12 -8 -1 50 16 84 11 20 10 29 -2 53 -8 16
-12 33 -8 39 6 11 -52 79 -68 79 -15 0 -8 -27 12 -45 11 -10 20 -29 20 -43 0
-14 7 -34 17 -44 15 -17 15 -19 0 -36 -10 -10 -17 -30 -17 -45 0 -14 -4 -29
-10 -32 -10 -6 -8 -60 3 -71 8 -9 55 20 155 94 94 70 131 81 187 58 26 -11 42
-13 49 -6 5 5 20 10 32 10 32 0 37 14 16 40 -13 17 -33 24 -77 29 l-60 6 40
25 c22 14 71 40 110 57 59 28 82 33 146 33 89 0 156 -18 206 -56 41 -31 77
-105 69 -139 -7 -29 17 -40 40 -18 11 12 15 27 11 55 -3 21 -4 38 -2 38 2 0
17 -13 33 -30 23 -23 40 -30 69 -30 36 0 83 22 83 38 0 4 -26 13 -57 19 -35 6
-93 31 -144 60 -48 27 -121 59 -162 72 l-76 24 40 29 c42 30 51 65 24 88 -12
10 -16 8 -24 -11z"/>
<path d="M1746 3548 c-33 -114 -35 -186 -6 -258 11 -27 17 -50 13 -50 -15 0
-41 33 -36 46 3 8 -7 33 -22 55 -40 62 -57 116 -49 166 6 43 6 43 -24 43 -34
0 -48 -27 -27 -57 7 -10 18 -36 25 -58 7 -22 23 -60 36 -84 13 -24 23 -46 21
-47 -2 -2 -45 34 -96 81 -83 78 -111 93 -111 63 0 -6 8 -17 18 -24 15 -12 14
-13 -15 -14 -26 0 -36 -6 -49 -31 -20 -40 -6 -53 46 -42 73 14 141 -6 179 -51
10 -12 5 -12 -35 0 -69 21 -113 0 -114 -53 0 -25 36 -41 54 -23 8 8 5 16 -14
30 -22 17 -23 19 -7 26 23 9 61 0 122 -27 28 -12 59 -22 70 -23 17 -1 95 -52
95 -62 0 -1 -29 11 -65 27 -78 35 -161 44 -159 17 2 -15 -6 -18 -40 -18 -51 0
-103 -31 -112 -65 -3 -14 -4 -28 -1 -31 3 -3 28 6 56 20 68 35 113 33 289 -10
181 -45 298 -50 375 -16 26 11 47 25 47 29 0 23 -25 30 -91 25 -110 -8 -199
39 -199 104 0 28 -21 32 -41 8 -12 -15 -15 -14 -29 4 -16 20 -17 55 -4 142 l5
35 -25 -30 c-22 -25 -25 -37 -21 -83 3 -29 10 -63 16 -75 11 -21 11 -21 -14 2
-33 30 -57 100 -57 168 0 45 4 58 26 78 32 29 30 68 -4 73 -12 2 -24 -3 -26
-10z m121 -355 c-3 -3 -11 -2 -17 2 -9 6 -9 10 1 16 14 8 27 -7 16 -18z m66
-74 c31 -20 31 -21 5 -15 -32 7 -78 24 -78 29 0 11 47 2 73 -14z"/>
<path d="M2544 3529 c-6 -8 -15 -24 -18 -36 -17 -56 -71 -97 -139 -106 -21 -3
-41 -7 -43 -10 -12 -11 52 -58 74 -54 12 2 22 3 22 0 0 -19 -63 -89 -106 -119
-30 -21 -53 -42 -51 -48 8 -23 37 -16 76 20 l41 36 -6 -61 c-6 -51 -4 -65 11
-81 23 -25 67 -26 88 -2 28 30 21 44 -17 37 -28 -6 -36 -3 -45 13 -25 47 -10
101 64 232 48 84 68 139 63 171 -2 19 -5 20 -14 8z"/>
<path d="M2587 3533 c-4 -3 -7 -26 -7 -49 0 -30 -13 -70 -40 -128 -28 -60 -40
-97 -40 -129 0 -57 12 -65 45 -30 l26 28 -6 -55 c-5 -46 -3 -59 15 -80 l20
-25 26 30 c22 26 24 36 19 80 l-6 50 21 -23 c17 -18 25 -21 36 -11 24 20 16
62 -31 151 -30 58 -47 104 -51 142 -6 53 -12 64 -27 49z"/>
<path d="M2634 3498 c6 -42 31 -97 95 -211 23 -41 33 -72 35 -106 1 -57 -15
-81 -55 -81 -30 0 -38 -17 -17 -38 20 -20 57 -14 85 14 24 24 25 30 20 87 l-7
62 28 -33 c28 -33 55 -41 68 -20 4 6 -3 19 -17 30 -68 52 -100 81 -110 100 -9
16 -8 19 3 16 16 -6 68 19 68 32 0 5 -21 18 -47 30 -62 27 -85 50 -113 110
-29 62 -45 65 -36 8z"/>
<path d="M3950 3357 c-57 -30 -79 -61 -86 -123 -13 -110 80 -204 203 -204 106
0 179 47 212 134 21 56 17 64 42 -71 11 -60 21 -75 34 -53 3 5 -1 43 -10 84
-8 41 -15 78 -15 81 0 4 30 -20 67 -53 81 -74 146 -110 216 -122 143 -23 259
59 244 173 -13 99 -118 150 -157 77 -26 -48 15 -94 60 -70 31 16 21 46 -14 43
-23 -2 -26 0 -16 13 15 17 52 18 68 2 18 -18 16 -88 -3 -88 -8 0 -18 -12 -21
-27 -6 -23 -8 -24 -19 -10 -7 10 -20 14 -32 11 -11 -3 -24 -1 -27 5 -4 6 -23
11 -42 11 -41 0 -74 -29 -74 -65 0 -18 -5 -25 -18 -25 -25 0 -128 68 -175 116
-38 38 -38 39 -15 45 14 3 30 0 40 -9 12 -10 28 -13 49 -8 17 3 39 1 49 -4 23
-12 100 8 100 27 0 22 -20 25 -47 8 -20 -14 -30 -15 -50 -6 -15 7 -30 8 -41 2
-12 -6 -26 -5 -42 5 -14 7 -38 13 -53 14 -16 0 -43 11 -61 25 -18 14 -36 25
-39 25 -4 0 -7 -26 -7 -57 0 -62 -24 -126 -56 -155 -31 -27 -89 -48 -134 -48
-44 0 -48 5 -24 31 39 44 7 137 -43 124 -18 -4 -23 -1 -23 15 0 28 -31 26 -64
-5 -23 -22 -26 -22 -26 -5 0 39 35 57 120 62 30 2 44 7 43 16 -2 6 -1 12 2 12
11 0 50 -26 58 -37 14 -23 27 -14 27 18 0 20 -10 40 -29 60 -25 24 -38 29 -79
29 -32 0 -64 -8 -92 -23z"/>
<path d="M454 3303 c3 -16 3 -22 0 -15 -7 14 -30 16 -39 2 -10 -16 14 -50 35
-50 11 0 27 11 36 25 16 24 16 27 -1 45 -25 28 -38 25 -31 -7z"/>
<path d="M354 3285 c-39 -59 7 -158 90 -197 66 -31 180 -31 247 -1 47 21 108
73 127 108 6 11 14 16 18 12 4 -4 1 -18 -6 -32 -7 -14 -10 -28 -7 -32 4 -3 0
-14 -9 -24 -9 -10 -14 -26 -12 -36 4 -21 40 -32 37 -11 -1 7 0 20 3 28 32 92
32 128 2 132 -8 0 -19 1 -26 2 -6 1 -19 -12 -28 -29 -16 -30 -102 -95 -125
-95 -7 0 -16 16 -19 35 -6 32 -45 75 -69 75 -6 0 -25 -11 -43 -25 -18 -14 -42
-25 -53 -25 -24 0 -25 -3 -9 -33 10 -20 10 -21 -5 -9 -9 8 -21 29 -27 47 -6
18 -19 35 -30 38 -16 4 -20 14 -20 45 0 50 -14 61 -36 27z"/>
<path d="M3512 3224 c-29 -19 -50 -38 -47 -43 10 -17 -194 -101 -244 -101
l-26 1 30 16 c48 25 75 55 75 82 0 26 -15 60 -22 51 -2 -3 -12 -18 -22 -33
-36 -58 -179 -98 -237 -66 -23 12 -59 3 -59 -15 0 -19 30 -42 75 -57 61 -20
215 -16 338 9 159 32 223 28 340 -23 30 -13 19 15 -19 52 -20 19 -50 37 -66
40 -18 4 -33 15 -38 29 -6 16 -18 24 -42 26 l-33 3 32 18 c34 18 88 23 97 8 3
-5 -1 -11 -9 -15 -22 -8 -18 -26 5 -26 10 0 24 9 30 21 9 16 8 25 -6 40 -28
31 -89 24 -152 -17z"/>
<path d="M2221 3152 c-13 -24 4 -52 33 -52 30 0 39 22 20 49 -18 26 -40 27
-53 3z"/>
<path d="M2891 3156 c-17 -20 -2 -46 25 -46 29 0 41 24 24 45 -16 19 -34 19
-49 1z"/>
<path d="M966 2831 c-3 -5 -15 -7 -25 -4 -10 3 -22 0 -25 -5 -3 -6 -15 -8 -26
-5 -12 3 -20 0 -20 -7 0 -8 -14 -10 -47 -6 -58 8 -94 -8 -107 -46 -9 -24 -5
-31 28 -63 21 -19 42 -35 47 -35 6 0 2 -13 -8 -30 -20 -35 -29 -37 -38 -11 -3
11 -19 25 -34 32 -21 9 -30 23 -37 52 -5 25 -19 48 -35 60 -65 48 -257 62
-353 26 -63 -23 -146 -93 -170 -143 -20 -42 -21 -98 -1 -135 25 -49 134 -141
167 -141 16 0 59 -14 94 -31 58 -28 72 -31 122 -26 32 4 77 13 101 22 24 8 58
15 75 15 17 0 48 11 68 25 20 14 42 25 48 25 6 0 20 16 31 35 12 19 25 35 29
35 4 0 11 -21 15 -46 4 -32 17 -57 42 -85 44 -49 88 -53 140 -13 29 22 33 30
28 54 -10 46 18 80 67 80 21 0 53 7 69 16 48 24 61 13 53 -46 -6 -46 -5 -50
15 -50 12 0 21 -6 21 -15 0 -26 40 -17 50 11 9 22 15 25 38 21 15 -4 61 -14
102 -23 152 -33 292 -7 353 65 49 59 43 117 -16 155 -27 18 -122 42 -199 51
-42 5 -59 12 -63 25 -3 10 -14 28 -25 40 -25 29 -25 50 0 50 68 0 435 -111
444 -135 3 -8 12 -12 21 -9 10 4 15 0 15 -13 0 -13 -11 -22 -32 -28 -72 -21
-74 -103 -5 -177 54 -59 111 -77 169 -55 38 15 38 15 32 -8 -4 -18 2 -32 31
-59 65 -64 117 -40 161 74 24 63 29 67 65 46 27 -16 44 -17 126 -11 82 6 96
10 100 26 7 25 15 24 47 -6 35 -32 51 -32 86 4 l29 29 26 -26 c21 -21 40 -27
97 -34 76 -8 101 -1 130 36 13 15 21 18 31 11 63 -45 64 -46 89 -36 31 12 71
73 66 103 -2 14 -12 24 -27 28 -15 3 -28 18 -38 42 -14 36 -14 37 28 100 24
35 52 76 62 92 27 40 13 58 -54 73 -40 9 -61 10 -81 2 -33 -13 -90 -96 -119
-172 l-21 -55 -69 2 c-38 0 -69 2 -69 3 0 1 4 13 9 26 11 29 -6 59 -35 62 -10
1 -27 6 -37 10 -25 11 -51 -16 -42 -44 3 -11 13 -21 21 -21 8 0 14 -2 14 -4 0
-2 2 -11 5 -18 4 -11 -11 -14 -72 -15 -121 -2 -184 -2 -233 -2 -25 1 -60 -2
-78 -6 -22 -5 -42 -3 -58 6 -19 10 -27 10 -36 1 -16 -16 -50 -15 -73 2 -18 13
-18 14 3 20 30 10 82 73 82 100 0 54 -83 106 -168 106 -33 0 -60 -21 -110 -84
-10 -12 -22 -15 -48 -10 -27 5 -34 3 -34 -10 0 -24 -16 -19 -37 10 -17 24 -22
25 -43 14 -14 -8 -20 -8 -16 -1 13 20 -6 36 -20 17 -11 -16 -19 -15 -111 14
-113 35 -243 60 -317 60 -108 0 -224 -47 -263 -106 -23 -36 -22 -118 1 -164
10 -19 13 -30 6 -23 -7 6 -27 9 -46 6 -26 -4 -40 0 -64 21 -18 14 -39 26 -48
26 -39 1 -42 14 -21 70 11 30 27 63 36 72 18 20 14 58 -7 68 -8 4 -25 12 -37
18 -27 14 -30 15 -37 3z m427 -18 c-7 -2 -19 -2 -25 0 -7 3 -2 5 12 5 14 0 19
-2 13 -5z m154 1 c-3 -3 -12 -4 -19 -1 -8 3 -5 6 6 6 11 1 17 -2 13 -5z m694
-24 c33 -32 33 -60 0 -90 -12 -11 -13 -11 -3 0 30 36 4 100 -42 100 -48 0 -73
-57 -52 -118 14 -40 14 -42 -3 -42 -41 0 -55 113 -18 147 45 41 79 42 118 3z
m920 9 c-23 -25 -89 -176 -94 -216 -3 -25 -30 -53 -41 -43 -8 9 6 60 15 54 5
-3 6 2 3 10 -13 33 95 216 127 216 6 0 1 -10 -10 -21z m-2240 -54 c-28 -31
-51 -61 -51 -66 0 -5 -9 -9 -20 -9 -20 0 -20 1 2 32 13 18 31 39 41 46 9 7 17
20 17 29 0 9 6 13 14 10 8 -3 20 1 27 9 6 8 14 12 17 10 2 -3 -18 -31 -47 -61z
m426 59 c-3 -3 -12 -4 -19 -1 -8 3 -5 6 6 6 11 1 17 -2 13 -5z m-944 -11 c-7
-2 -21 -2 -30 0 -10 3 -4 5 12 5 17 0 24 -2 18 -5z m880 -13 c-36 -22 -58 -52
-68 -92 -8 -29 -35 -39 -35 -13 0 32 31 75 72 99 24 14 48 26 53 26 6 0 -4 -9
-22 -20z m-525 -9 c-15 -24 3 -50 36 -52 21 -2 21 -2 0 -6 -25 -5 -74 13 -74
27 0 10 36 50 45 50 3 0 0 -9 -7 -19z m670 0 c19 -12 11 -45 -11 -49 -12 -3
-20 4 -24 17 -3 12 -9 21 -14 21 -5 0 -9 5 -9 10 0 12 40 13 58 1z m-864 -51
c5 -5 -3 -23 -18 -43 -20 -26 -32 -34 -48 -29 -18 4 -20 2 -16 -16 4 -12 2
-22 -3 -22 -4 0 -44 -36 -89 -80 l-81 -80 -11 26 c-7 14 -24 32 -40 40 -26 13
-27 17 -21 62 3 26 13 57 21 70 20 31 90 71 143 82 49 10 149 4 163 -10z m36
2 c0 -10 -6 -27 -14 -38 -13 -17 -13 -15 -3 19 13 41 17 46 17 19z m1633 3
c-3 -9 -8 -14 -10 -11 -3 3 -2 9 2 15 9 16 15 13 8 -4z m-2023 1 c0 -2 -8 -10
-17 -17 -16 -13 -17 -12 -4 4 13 16 21 21 21 13z m1165 -46 c21 0 85 -13 135
-27 8 -2 -16 -14 -52 -27 -37 -12 -86 -37 -107 -54 l-40 -32 -10 37 c-14 49
-14 69 0 96 16 31 32 39 42 22 4 -8 19 -15 32 -15z m-1212 -25 c-9 -19 -23
-35 -30 -35 -11 0 -11 5 -2 23 29 55 58 67 32 12z m2655 23 c-6 -18 -28 -21
-28 -4 0 9 7 16 16 16 9 0 14 -5 12 -12z m-2259 -31 c-2 -1 -15 -11 -29 -22
l-25 -20 19 23 c11 12 24 22 29 22 6 0 8 -1 6 -3z m101 -27 c13 0 13 2 0 11
-13 9 -13 10 0 6 8 -2 16 -13 18 -25 3 -18 -2 -22 -22 -22 -14 0 -29 0 -33 -1
-4 0 -11 9 -15 21 -5 13 -4 19 2 15 6 -3 10 -1 10 6 0 10 3 10 12 1 7 -7 19
-12 28 -12z m170 0 c0 -5 -9 -10 -21 -10 -11 0 -17 5 -14 10 3 6 13 10 21 10
8 0 14 -4 14 -10z m377 4 c-3 -3 -12 -4 -19 -1 -8 3 -5 6 6 6 11 1 17 -2 13
-5z m967 -10 c9 -23 8 -24 -24 -24 -29 0 -29 1 -13 20 21 24 29 25 37 4z m-67
-37 c1 -18 11 -39 23 -49 28 -23 25 -55 -10 -90 -24 -23 -33 -28 -44 -19 -26
22 -29 62 -7 92 25 34 26 37 4 61 -16 18 -16 18 0 12 12 -4 17 -1 17 10 0 30
15 16 17 -17z m-1961 -4 c-7 -7 -26 7 -26 19 0 6 6 6 15 -2 9 -7 13 -15 11
-17z m667 20 c-7 -2 -19 -2 -25 0 -7 3 -2 5 12 5 14 0 19 -2 13 -5z m971 -12
c4 -5 0 -12 -6 -14 -8 -3 -6 -6 5 -6 21 -1 23 -31 2 -31 -8 0 -15 3 -15 8 0 4
-3 17 -6 30 -6 22 9 31 20 13z m486 -22 c0 -11 -7 -36 -15 -56 -11 -27 -12
-39 -4 -49 15 -18 -2 -18 -26 -1 -17 13 -17 16 0 60 9 25 14 50 11 56 -5 7 -1
8 10 4 13 -5 15 -3 9 7 -5 9 -4 11 3 6 7 -4 12 -16 12 -27z m210 27 c0 -2 -7
-7 -16 -10 -8 -3 -12 -2 -9 4 6 10 25 14 25 6z m69 -22 c-7 -8 -20 -19 -30
-25 -15 -8 -17 -6 -12 8 8 22 35 43 46 36 4 -3 2 -11 -4 -19z m98 20 c-3 -3
-12 -4 -19 -1 -8 3 -5 6 6 6 11 1 17 -2 13 -5z m138 -7 c-11 -7 -20 -21 -20
-32 0 -11 -8 -21 -17 -23 -19 -4 -18 13 2 46 8 12 24 22 35 22 20 -1 20 -1 0
-13z m182 5 c7 6 16 8 19 5 8 -8 -19 -47 -34 -47 -7 0 -10 5 -7 10 4 6 1 19
-6 28 -11 14 -11 15 1 5 10 -9 17 -10 27 -1z m150 2 c-3 -3 -12 -4 -19 -1 -8
3 -5 6 6 6 11 1 17 -2 13 -5z m-2437 -12 c0 -11 -32 -61 -47 -73 -16 -12 -16
-11 1 9 19 22 19 22 -3 41 -20 18 -21 20 -4 23 23 4 53 5 53 0z m120 -1 c0 -6
-4 -13 -10 -16 -5 -3 -10 -11 -10 -16 0 -6 6 -7 12 -3 7 5 -14 -18 -47 -50
-64 -62 -121 -102 -77 -54 12 13 22 30 22 36 0 7 3 12 8 12 4 0 22 23 40 50
29 45 62 66 62 41z m449 -31 c17 -22 38 -40 46 -40 8 0 15 -4 15 -9 0 -5 14
-14 30 -21 17 -7 29 -15 26 -17 -2 -2 -18 3 -35 12 -17 8 -31 13 -31 10 0 -9
-81 68 -91 88 -17 31 7 18 40 -23z m159 22 c2 -7 -3 -12 -12 -12 -9 0 -16 7
-16 16 0 17 22 14 28 -4z m782 11 c0 -5 -13 -8 -29 -8 -16 0 -27 3 -24 8 2 4
15 7 29 7 13 0 24 -3 24 -7z m500 -8 c0 -8 -7 -15 -16 -15 -14 0 -14 3 -4 15
7 8 14 15 16 15 2 0 4 -7 4 -15z m-1744 -10 c-3 -9 0 -15 10 -15 8 0 26 -12
40 -27 l24 -26 -22 -24 c-12 -12 -29 -23 -37 -23 -14 1 -13 2 2 11 24 14 21
36 -8 55 -24 16 -33 43 -18 57 11 12 15 8 9 -8z m765 3 c45 -13 53 -43 20 -72
-46 -42 -204 -60 -280 -32 -40 14 -53 36 -21 36 12 0 34 14 48 30 16 18 37 30
52 31 14 0 34 4 45 9 29 12 92 12 136 -2z m642 6 c-7 -3 -9 -12 -6 -20 3 -9
-2 -14 -13 -15 -11 0 -14 -3 -7 -5 17 -7 6 -55 -32 -139 -39 -86 -59 -106 -82
-82 -16 15 -15 20 5 59 12 24 22 39 22 34 0 -27 43 36 56 83 22 74 31 91 52
90 9 0 12 -3 5 -5z m272 -4 c3 -5 -2 -10 -12 -10 -14 0 -15 -2 -5 -9 11 -7 11
-14 -1 -43 -19 -46 -23 -47 -103 -53 -60 -3 -65 -2 -47 10 12 8 24 26 27 40
10 38 37 33 30 -5 -7 -32 3 -38 35 -20 16 8 28 29 45 83 6 19 21 23 31 7z
m505 -5 c0 -8 -6 -15 -12 -15 -10 0 -10 -2 0 -9 8 -4 13 -14 12 -22 -5 -31 1
-48 18 -52 16 -4 16 -4 -1 -12 -27 -11 -40 8 -47 70 -5 49 -4 55 12 55 10 0
18 -7 18 -15z m-2678 -11 c-37 -26 -82 -95 -82 -125 0 -16 8 -33 18 -39 16
-11 16 -11 -1 -6 -10 3 -22 6 -27 6 -5 0 -16 7 -24 16 -14 14 -14 19 4 55 19
36 101 108 125 109 5 0 -1 -7 -13 -16z m1527 -11 c-13 -36 -3 -89 22 -114 10
-10 15 -19 10 -19 -5 0 -21 14 -35 31 -26 31 -37 99 -16 99 6 0 10 7 10 15 0
8 4 15 10 15 6 0 6 -10 -1 -27z m461 23 c0 -17 -15 -36 -29 -36 -10 0 -12 -3
-5 -8 13 -8 24 -72 13 -72 -11 0 -29 35 -29 57 0 22 27 63 41 63 5 0 9 -2 9
-4z m430 -16 c-6 -11 -17 -20 -25 -20 -19 0 -19 5 1 24 22 23 37 20 24 -4z
m-2661 -62 c17 1 22 -2 18 -13 -4 -8 1 -19 11 -24 31 -19 2 -11 -38 9 -48 25
-89 78 -69 90 9 6 19 -2 34 -28 16 -28 27 -36 44 -34z m414 47 c2 -10 -80 -57
-123 -70 -23 -7 -24 -7 -10 10 21 26 102 76 118 73 7 -2 14 -7 15 -13z m507 4
c11 -8 3 -9 -32 -6 -27 2 -52 0 -59 -7 -9 -8 -9 -6 0 7 15 19 67 23 91 6z
m1060 -11 c0 -22 -34 -88 -45 -88 -4 0 1 10 9 22 9 12 16 37 16 55 0 18 5 33
10 33 6 0 10 -10 10 -22z m513 15 c-7 -2 -19 -2 -25 0 -7 3 -2 5 12 5 14 0 19
-2 13 -5z m330 -26 c-3 -13 -15 -37 -29 -53 -19 -23 -25 -26 -33 -15 -5 7 -14
10 -20 7 -6 -4 -20 -5 -31 -1 -16 5 -18 10 -9 31 5 14 7 30 3 35 -3 5 4 9 15
9 17 0 21 -6 21 -30 0 -39 24 -40 45 -1 8 16 20 31 27 34 7 3 14 6 14 6 1 1
-1 -10 -3 -22z m-1243 4 c0 -5 -16 -23 -35 -39 -35 -32 -91 -52 -135 -51 -14
0 -3 6 27 13 58 14 97 37 116 66 12 21 27 27 27 11z m970 -6 c0 -23 -34 -65
-52 -65 -19 0 -20 2 -6 18 8 9 18 25 21 35 6 15 37 25 37 12z m95 -30 c0 -37
-9 -46 -19 -19 -10 26 -7 54 7 54 7 0 12 -14 12 -35z"/>
<path d="M495 2701 c-7 -12 12 -24 25 -16 11 7 4 25 -10 25 -5 0 -11 -4 -15
-9z"/>
<path d="M400 2690 c0 -5 5 -10 10 -10 6 0 10 5 10 10 0 6 -4 10 -10 10 -5 0
-10 -4 -10 -10z"/>
<path d="M4797 2829 c-22 -13 -49 -66 -77 -155 -23 -71 -23 -72 -59 -72 -20 0
-45 -1 -56 -1 -11 -1 -45 -1 -76 0 -32 1 -65 -3 -74 -9 -23 -12 -82 4 -114 32
-13 12 -30 35 -37 53 -8 18 -28 42 -44 55 -17 12 -30 27 -30 34 0 21 -21 28
-95 30 -38 1 -81 5 -95 8 -19 5 -36 0 -62 -18 -20 -13 -38 -22 -41 -20 -2 3
-30 7 -62 10 -48 4 -66 1 -110 -21 -90 -44 -175 -154 -175 -228 0 -8 12 -29
26 -46 l26 -31 -31 0 c-65 0 -82 89 -31 176 27 48 51 73 114 117 30 21 33 35
9 43 -10 3 -27 10 -39 16 -53 25 -208 -104 -233 -195 -15 -53 -1 -113 36 -153
13 -14 23 -28 23 -32 0 -4 13 -16 28 -27 23 -17 42 -20 122 -20 82 1 103 5
154 28 32 15 67 27 77 27 11 0 28 5 39 12 27 17 40 -1 13 -19 -30 -20 -29 -36
2 -31 20 4 25 1 25 -14 0 -29 24 -32 74 -9 26 11 48 16 51 10 3 -5 26 -20 50
-35 56 -32 110 -27 159 17 31 26 39 28 131 31 l98 3 12 34 c13 40 31 50 39 24
4 -10 22 -29 40 -43 32 -24 40 -26 133 -23 225 6 215 4 228 43 10 31 17 36 52
40 45 7 93 34 93 54 0 7 -18 27 -40 45 -32 26 -52 33 -93 36 -65 3 -62 2 -48
19 15 18 26 115 17 150 -3 14 -16 32 -29 40 -30 19 -98 28 -120 15z m57 -15
c9 -3 16 -11 16 -16 0 -6 -6 -5 -15 2 -25 21 -42 -4 -82 -126 -24 -73 -42
-114 -51 -114 -17 0 -12 37 19 132 37 112 64 141 113 122z m-852 -40 c-24 -16
-31 -64 -9 -65 6 0 3 -4 -8 -8 -25 -11 -35 -5 -35 20 0 22 42 69 62 69 7 0 2
-7 -10 -16z m108 -39 c-11 -21 -17 -42 -14 -46 3 -5 0 -9 -7 -9 -11 0 -9 -27
5 -62 6 -12 -1 -21 -29 -33 -40 -19 -45 -18 -50 17 -1 12 -4 30 -6 38 -3 9 3
15 14 15 11 0 26 18 41 52 20 42 53 79 63 69 2 -1 -6 -20 -17 -41z m-346 -7
c-41 -29 -76 -70 -120 -144 -7 -11 -15 -16 -19 -12 -22 21 50 112 125 159 62
39 73 36 14 -3z m-238 -23 c-19 -24 -39 -60 -46 -80 -6 -19 -18 -35 -26 -35
-24 0 10 68 59 118 22 23 42 42 44 42 2 0 -12 -20 -31 -45z m388 -18 c0 -38
-39 -107 -60 -107 -11 0 -8 10 10 38 32 49 40 85 26 114 -12 22 -12 22 6 6 10
-10 18 -32 18 -51z m316 -28 c0 -21 5 -41 11 -45 15 -9 -9 -24 -38 -24 -25 0
-30 19 -12 51 7 15 6 28 -6 51 -12 25 -13 33 -3 40 20 13 48 -29 48 -73z
m-350 29 c0 -6 -12 -31 -26 -55 -23 -40 -29 -44 -52 -38 -15 4 -28 8 -30 10
-9 8 22 47 56 70 41 28 52 31 52 13z m980 -14 c0 -8 -9 -14 -20 -14 -18 0 -19
3 -10 20 12 22 30 18 30 -6z m-586 -55 c-3 -5 -10 -7 -15 -3 -5 3 -7 10 -3 15
3 5 10 7 15 3 5 -3 7 -10 3 -15z m223 -35 c-3 -3 -12 -4 -19 -1 -8 3 -5 6 6 6
11 1 17 -2 13 -5z m157 -9 c-10 -8 -27 -15 -38 -15 -15 0 -16 3 -6 15 7 8 24
15 38 15 25 0 25 -1 6 -15z m174 4 c-10 -5 -18 -21 -18 -34 0 -18 -5 -25 -20
-25 -13 0 -18 5 -14 15 4 8 10 15 16 15 5 0 6 5 3 10 -3 6 -1 10 5 10 6 0 8 5
5 10 -3 6 4 10 17 10 20 -1 21 -2 6 -11z m109 5 c-3 -3 -12 -4 -19 -1 -8 3 -5
6 6 6 11 1 17 -2 13 -5z m-387 -25 c0 -5 -10 -9 -21 -9 -18 0 -19 2 -9 15 12
15 30 12 30 -6z m440 0 c0 -5 -10 -9 -21 -9 -18 0 -19 2 -9 15 12 15 30 12 30
-6z m-696 -6 c-8 -21 -12 -72 -6 -90 7 -20 39 -15 56 8 8 12 12 28 9 35 -3 9
2 14 16 14 14 0 21 -6 21 -18 0 -42 -78 -76 -113 -50 -30 23 -22 118 10 118
11 0 13 -5 7 -17z m181 7 c3 -5 -2 -10 -12 -10 -14 0 -15 -2 -4 -9 11 -7 11
-15 -5 -47 -11 -22 -27 -40 -37 -42 -16 -3 -15 1 5 43 18 38 20 48 9 55 -11 6
-10 9 5 13 31 8 33 7 39 -3z m440 0 c3 -5 -2 -10 -12 -10 -14 0 -15 -2 -4 -9
11 -7 11 -15 -5 -47 -11 -22 -27 -40 -37 -42 -16 -3 -16 -1 2 40 11 24 22 51
25 61 6 19 21 23 31 7z m-1145 -11 c0 -7 12 -9 36 -4 24 4 34 3 29 -4 -3 -6
-29 -11 -57 -11 -44 0 -49 2 -38 15 15 18 30 20 30 4z m630 -4 c0 -8 -7 -15
-15 -15 -8 0 -15 7 -15 15 0 8 7 15 15 15 8 0 15 -7 15 -15z m-928 -25 c6 -37
-9 -39 -22 -4 -13 33 -13 34 4 34 8 0 16 -13 18 -30z m158 5 c0 -14 -4 -25
-10 -25 -5 0 -10 11 -10 25 0 14 5 25 10 25 6 0 10 -11 10 -25z m410 10 c0 -8
-9 -15 -20 -15 -13 0 -18 5 -14 15 4 8 12 15 20 15 8 0 14 -7 14 -15z m194 0
c3 -9 0 -15 -8 -15 -8 0 -16 7 -20 15 -3 9 0 15 8 15 8 0 16 -7 20 -15z m386
5 c0 -5 -4 -10 -9 -10 -6 0 -13 5 -16 10 -3 6 1 10 9 10 9 0 16 -4 16 -10z
m-425 -21 c9 -27 1 -33 -24 -20 -14 8 -22 8 -26 1 -10 -16 2 -40 20 -40 8 0
15 -4 15 -9 0 -15 -29 -33 -45 -27 -38 14 -30 77 13 99 37 20 40 20 47 -4z
m362 15 c-3 -3 -12 -4 -19 -1 -8 3 -5 6 6 6 11 1 17 -2 13 -5z m436 -1 c-7 -2
-19 -2 -25 0 -7 3 -2 5 12 5 14 0 19 -2 13 -5z m-388 -53 c0 -49 -19 -47 -23
3 -2 26 1 37 10 37 10 0 14 -13 13 -40z m102 13 c-2 -21 2 -28 15 -27 10 1 15
-3 12 -10 -3 -6 4 0 15 14 11 14 21 28 21 33 0 4 7 7 16 7 11 0 14 -6 8 -22
-11 -38 -24 -47 -67 -46 -36 1 -102 28 -69 28 7 0 18 11 24 25 15 33 27 32 25
-2z m-947 -19 c-45 -19 -50 -17 -16 5 17 11 34 17 39 14 5 -3 -5 -12 -23 -19z
m258 14 c-3 -7 -12 -14 -21 -16 -12 -2 -15 1 -11 12 7 19 38 22 32 4z m222
-17 c0 -40 -32 -77 -78 -88 -29 -7 -41 -7 -50 4 -11 11 -8 13 16 13 31 0 82
42 82 66 0 8 5 14 11 14 5 0 7 5 4 10 -3 6 -1 10 4 10 6 0 11 -13 11 -29z
m-745 -1 c3 -5 2 -10 -4 -10 -5 0 -13 5 -16 10 -3 6 -2 10 4 10 5 0 13 -4 16
-10z m495 -26 c-8 -8 -22 -20 -32 -25 -19 -10 -19 -9 -3 15 10 14 24 26 32 26
13 0 13 -3 3 -16z"/>
<path d="M2030 2755 c0 -9 5 -15 11 -13 6 2 11 8 11 13 0 5 -5 11 -11 13 -6 2
-11 -4 -11 -13z"/>
<path d="M1036 2641 c-4 -5 -2 -12 3 -15 5 -4 12 -2 15 3 4 5 2 12 -3 15 -5 4
-12 2 -15 -3z"/>
<path d="M110 2420 c0 -5 5 -10 10 -10 6 0 10 5 10 10 0 6 -4 10 -10 10 -5 0
-10 -4 -10 -10z"/>
<path d="M1880 2385 c0 -9 5 -15 11 -13 6 2 11 8 11 13 0 5 -5 11 -11 13 -6 2
-11 -4 -11 -13z"/>
<path d="M1910 2375 c-7 -9 -1 -19 22 -39 38 -31 63 -30 63 3 0 18 -9 26 -37
36 -30 10 -40 10 -48 0z"/>
<path d="M3862 2359 c2 -6 8 -10 13 -10 5 0 11 4 13 10 2 6 -4 11 -13 11 -9 0
-15 -5 -13 -11z"/>
<path d="M445 2071 c-45 -20 -92 -70 -101 -107 -17 -66 43 -164 100 -164 50 0
86 66 54 98 -17 17 -67 15 -75 -4 -3 -8 2 -23 11 -32 15 -15 18 -15 26 -2 5 8
12 11 15 8 14 -13 -7 -28 -40 -28 -36 0 -45 12 -45 61 0 18 6 32 15 36 9 3 22
20 30 37 12 28 13 29 14 8 1 -17 6 -22 19 -19 9 2 30 -3 45 -10 48 -24 107 8
107 59 0 31 6 33 47 16 54 -24 183 -129 183 -150 0 -13 -44 -8 -65 7 -12 10
-30 13 -52 9 -21 -4 -39 -1 -48 6 -12 10 -21 10 -38 2 -12 -5 -30 -13 -39 -16
-10 -3 -18 -10 -18 -16 0 -19 29 -23 53 -7 15 10 29 12 46 5 13 -4 32 -6 42
-3 10 3 31 -1 48 -9 16 -9 37 -13 46 -10 9 4 33 -5 55 -20 22 -14 42 -26 45
-26 3 0 5 19 5 43 0 100 55 184 135 206 75 21 104 12 80 -23 -34 -47 -5 -132
41 -123 17 3 24 -1 26 -16 4 -30 22 -31 57 -2 29 25 31 26 31 6 0 -32 -38 -51
-102 -51 -45 0 -58 -3 -58 -15 0 -8 -3 -15 -6 -15 -12 0 -50 24 -57 37 -12 19
-27 6 -27 -22 0 -39 48 -85 96 -92 47 -6 122 27 164 72 22 23 25 36 25 94 0
59 -4 72 -28 104 -51 68 -151 100 -236 77 -72 -19 -109 -49 -140 -114 -28 -57
-29 -58 -35 -30 -5 26 -13 77 -20 129 -1 11 -6 19 -10 18 -28 -7 -29 -10 -16
-59 7 -27 16 -65 20 -86 l7 -36 -74 65 c-133 116 -255 151 -358 104z"/>
<path d="M1470 2068 c0 -19 77 -86 108 -93 18 -3 32 -14 35 -26 4 -15 14 -19
49 -20 l43 -1 -50 -24 c-27 -13 -58 -24 -67 -24 -23 0 -34 20 -17 31 11 6 11
11 2 20 -17 17 -43 -6 -43 -36 0 -22 34 -45 67 -45 26 0 132 62 138 81 10 29
201 110 259 109 15 -1 9 -6 -19 -20 -66 -33 -91 -79 -65 -120 8 -12 15 -8 41
23 51 62 139 85 243 62 46 -10 65 8 39 37 -45 50 -207 61 -386 27 -142 -27
-263 -24 -325 9 -49 25 -52 26 -52 10z"/>
<path d="M2438 2055 c-31 -17 -43 -58 -33 -118 l7 -42 -35 34 c-34 32 -57 35
-57 6 0 -8 20 -28 44 -44 25 -17 54 -43 66 -58 l21 -26 -38 -14 c-21 -7 -39
-13 -40 -13 -2 0 -3 -6 -3 -13 0 -7 22 -21 49 -31 58 -20 83 -45 111 -109 26
-59 45 -62 37 -6 -5 39 -16 62 -96 213 -52 98 -38 197 25 182 19 -5 24 -2 24
12 0 40 -35 52 -82 27z"/>
<path d="M2718 2059 c-10 -5 -18 -21 -18 -34 0 -23 2 -24 26 -13 64 29 71 -77
13 -185 -65 -121 -88 -172 -95 -209 -9 -54 6 -47 40 17 21 42 38 59 70 75 23
11 54 20 69 20 38 0 40 14 6 43 -20 16 -37 23 -52 19 -22 -6 -22 -5 -3 24 29
45 57 73 103 102 44 28 50 44 19 50 -11 2 -34 -12 -57 -34 l-39 -38 7 66 c5
58 3 68 -16 87 -23 23 -46 26 -73 10z"/>
<path d="M3066 2049 c-52 -12 -80 -37 -64 -56 8 -10 25 -12 68 -7 113 13 210
-37 210 -108 0 -23 4 -29 17 -26 10 2 22 13 28 25 11 21 12 21 27 -10 15 -31
16 -83 2 -139 -9 -37 11 -37 30 0 21 40 18 110 -6 152 l-20 35 22 -20 c43 -39
74 -115 75 -183 0 -58 -2 -65 -27 -84 -30 -21 -36 -49 -14 -67 23 -20 41 -2
54 52 17 76 15 159 -7 217 -19 49 -15 53 22 22 13 -11 14 -17 5 -23 -8 -5 -5
-18 13 -46 39 -58 60 -123 57 -173 -3 -40 0 -45 19 -48 36 -5 47 30 23 75 -11
21 -20 45 -20 53 0 8 -14 39 -30 69 -17 30 -29 56 -27 57 2 2 47 -36 100 -85
113 -104 135 -119 242 -160 109 -42 142 -64 160 -107 13 -31 17 -34 30 -24 23
19 18 64 -10 94 -28 30 -29 29 60 47 66 13 111 33 194 88 49 33 61 36 123 36
37 0 68 4 68 8 0 22 -23 47 -55 57 -28 9 -33 15 -26 28 12 21 90 24 113 4 11
-9 26 -12 44 -8 20 5 30 2 41 -14 15 -21 54 -25 59 -5 5 16 -64 55 -96 55 -16
0 -32 5 -36 11 -4 8 -27 9 -68 4 -49 -5 -66 -12 -84 -33 -19 -21 -22 -23 -17
-7 12 33 11 48 -2 52 -8 3 -13 -3 -13 -14 -1 -17 -1 -17 -11 0 -17 29 -24 20
-38 -45 l-13 -63 -14 28 c-21 39 -54 37 -54 -3 0 -37 -19 -77 -52 -107 -84
-79 -287 -69 -423 19 l-50 32 50 7 c28 3 58 9 68 14 20 9 41 42 30 48 -15 9
-98 11 -136 3 -45 -10 -114 13 -143 46 -19 21 -19 21 1 14 11 -5 39 -10 61
-13 37 -5 44 -2 59 20 23 36 16 61 -18 65 -33 4 -38 -23 -6 -31 12 -3 18 -10
14 -16 -11 -19 -68 -12 -123 14 -30 14 -57 23 -61 20 -8 -4 -81 41 -81 51 0 2
18 -5 40 -16 22 -11 67 -23 100 -27 52 -5 60 -4 60 11 0 10 9 16 25 16 58 0
124 44 125 83 0 23 -7 22 -74 -9 -66 -30 -81 -29 -290 22 -145 35 -247 42
-330 23z m258 -59 c16 -16 -26 -11 -54 6 l-25 15 35 -6 c19 -3 39 -10 44 -15z"/>
<path d="M4000 2045 c-58 -18 -95 -57 -111 -117 -34 -127 73 -251 188 -219 45
13 93 58 93 88 0 26 -15 31 -24 8 -3 -8 -18 -15 -34 -15 -15 0 -37 -7 -48 -15
-27 -21 -31 -19 -26 15 4 29 3 30 -38 30 -55 0 -80 14 -80 47 l0 26 23 -21
c29 -28 43 -28 50 -1 5 17 9 19 26 9 47 -25 98 85 56 120 -25 21 -5 33 43 26
57 -8 136 -58 152 -96 14 -35 30 -39 30 -9 0 33 -68 93 -133 117 -66 25 -103
26 -167 7z"/>
<path d="M4369 2053 c-3 -18 -5 -29 -11 -43 -22 -62 -26 -84 -19 -104 11 -28
57 -33 65 -8 9 28 67 79 107 96 l37 15 6 -34 c7 -35 46 -75 73 -75 8 0 29 10
46 22 18 13 37 22 44 20 18 -4 25 16 12 39 -8 16 -8 20 1 14 6 -4 20 -27 30
-51 11 -24 26 -44 34 -44 16 0 29 -41 20 -63 -3 -8 0 -18 7 -23 18 -10 39 24
39 63 0 79 -53 141 -142 168 -68 20 -93 19 -174 -6 -58 -17 -78 -30 -122 -76
-30 -30 -56 -52 -59 -49 -3 3 0 12 7 21 7 8 10 23 7 34 -2 11 3 25 15 35 15
13 16 20 8 36 -11 20 -29 27 -31 13z"/>
<path d="M2571 2016 c-17 -27 -20 -42 -14 -82 l6 -49 -26 30 -25 30 -11 -29
c-14 -34 -11 -44 45 -160 33 -68 44 -101 44 -138 l0 -48 -34 0 c-22 0 -40 -7
-48 -18 -7 -10 -21 -21 -30 -25 -25 -9 -23 -47 2 -47 13 0 18 -5 14 -15 -4
-10 0 -15 14 -15 48 0 51 -7 33 -68 -22 -71 -37 -95 -72 -116 -32 -19 -68 -20
-104 -4 -14 6 -28 8 -31 5 -9 -9 29 -98 43 -104 7 -3 31 4 53 16 22 12 43 21
46 21 15 0 -55 -106 -93 -140 -52 -49 -77 -51 -103 -7 -30 50 -38 57 -75 57
-44 0 -119 -63 -111 -93 4 -16 0 -18 -20 -14 -40 7 -41 -20 -3 -59 29 -29 30
-34 13 -34 -11 0 -44 16 -74 35 -33 21 -68 35 -87 35 -35 0 -40 -9 -23 -41 15
-27 -2 -24 -30 6 -14 15 -35 25 -51 25 -31 0 -52 21 -43 44 4 11 1 16 -10 16
-22 0 -21 -45 3 -84 52 -84 238 -121 383 -76 132 41 274 160 340 285 39 76 76
190 80 248 3 34 5 37 36 37 30 0 32 -2 32 -33 0 -51 35 -176 69 -248 52 -108
121 -191 202 -240 103 -62 158 -78 265 -79 141 0 224 32 260 102 13 25 13 35
4 59 -7 16 -19 29 -26 29 -16 0 -18 -18 -4 -40 13 -20 -6 -40 -39 -40 -15 0
-37 -7 -49 -16 -21 -14 -22 -14 -22 10 0 23 -4 26 -38 26 -29 0 -45 -7 -63
-26 -29 -31 -71 -54 -99 -54 -26 0 -26 17 0 25 24 8 72 64 67 79 -2 6 -18 9
-37 8 -28 -3 -32 -1 -26 13 9 24 -60 84 -97 85 -45 0 -96 -26 -103 -54 -14
-56 -60 -38 -126 50 -21 27 -42 61 -47 76 l-10 27 37 -19 c20 -11 51 -20 69
-20 28 0 33 4 33 24 0 13 7 26 15 30 15 5 21 37 9 49 -4 3 -16 0 -28 -8 -47
-33 -114 -8 -155 59 -16 26 -50 115 -51 134 0 1 10 0 23 -3 17 -5 33 2 57 24
29 25 32 31 21 45 -8 9 -20 16 -27 16 -8 0 -14 7 -14 15 0 12 -13 15 -56 15
-41 0 -53 3 -48 12 5 7 11 36 15 65 4 30 22 84 39 121 42 88 52 121 44 155 -7
34 -27 35 -53 1 -24 -30 -28 -16 -10 35 10 27 8 36 -12 66 -13 19 -27 35 -31
35 -3 0 -16 -15 -27 -34z"/>
<path d="M2923 2004 c-8 -22 9 -48 34 -52 25 -4 37 22 23 49 -13 23 -48 25
-57 3z"/>
<path d="M2261 1993 c-13 -26 1 -45 30 -41 18 2 24 9 24 28 0 32 -39 41 -54
13z"/>
<path d="M1806 1955 c-20 -14 -67 -48 -103 -75 -74 -56 -99 -65 -146 -55 -51
11 -119 7 -135 -8 -23 -24 29 -57 91 -57 43 0 48 -2 37 -15 -19 -23 -138 -84
-199 -102 -95 -27 -236 1 -299 60 -35 32 -52 71 -52 117 0 33 -3 40 -20 40
-26 0 -43 -34 -35 -71 7 -33 -8 -40 -24 -10 -23 43 -103 50 -143 14 -28 -25
-22 -30 36 -35 42 -3 74 -16 143 -55 48 -28 122 -62 164 -75 l76 -23 -40 -35
c-34 -31 -39 -40 -33 -63 7 -31 36 -37 36 -8 0 31 58 67 170 107 133 46 201
82 286 151 36 31 65 52 63 47 -28 -61 -78 -152 -91 -166 -29 -29 -16 -62 23
-56 21 3 24 9 25 49 1 25 7 57 14 70 23 43 92 134 87 114 -20 -75 -17 -112 19
-243 5 -18 44 -11 58 11 9 14 5 23 -21 48 -30 27 -33 36 -33 88 0 76 23 151
56 182 l26 24 -7 -25 c-4 -14 -12 -39 -18 -57 -8 -24 -8 -39 1 -58 7 -14 12
-34 12 -44 0 -16 48 -71 63 -71 14 0 6 28 -13 45 -11 10 -20 28 -20 39 0 12
-6 31 -14 42 -12 17 -12 22 0 39 8 10 14 31 14 46 0 14 7 32 15 39 10 9 12 17
6 23 -5 5 -7 16 -4 23 8 23 -30 17 -71 -11z"/>
<path d="M2001 1862 c-45 -22 -71 -59 -78 -110 -5 -36 -2 -45 26 -72 35 -35
64 -36 69 -2 3 16 -2 22 -15 22 -11 0 -27 6 -37 13 -15 11 -17 17 -7 35 15 28
53 50 59 33 6 -18 32 -13 64 14 30 25 82 34 93 15 3 -6 -4 -10 -17 -10 -33 0
-51 -19 -36 -37 8 -10 8 -17 0 -25 -24 -24 -14 -78 22 -114 34 -34 78 -45 91
-24 12 20 35 10 35 -14 0 -35 -59 -108 -105 -131 -50 -25 -146 -26 -192 -1
-39 20 -43 29 -7 16 63 -25 124 0 124 50 0 20 -6 31 -20 35 -25 8 -62 -12 -58
-32 4 -22 28 -29 28 -9 0 9 5 16 10 16 15 0 12 -26 -6 -41 -15 -12 -21 -11
-101 18 -7 3 -13 -2 -13 -11 0 -13 -4 -15 -19 -6 -52 28 -53 5 -2 -63 22 -29
43 -64 46 -79 7 -26 5 -28 -22 -28 -36 0 -66 -30 -62 -62 2 -13 0 -29 -5 -37
-11 -16 12 -33 37 -27 20 5 23 -10 3 -21 -8 -4 -16 -19 -18 -33 -2 -19 -10
-26 -30 -28 -20 -2 -28 1 -28 12 0 9 9 16 20 16 26 0 26 17 0 25 -51 16 -69
-61 -19 -79 60 -21 138 35 159 115 10 35 9 57 -2 111 -15 70 -13 73 29 35 13
-12 29 -17 39 -13 11 4 26 -2 41 -16 24 -22 25 -22 55 -5 31 18 32 18 55 -7
28 -31 43 -32 73 -8 28 23 21 67 -11 77 -30 10 -47 -10 -20 -24 12 -7 21 -16
21 -21 0 -16 -26 -11 -64 11 -29 17 -38 18 -55 7 -17 -10 -25 -10 -50 5 -16 9
-38 17 -49 17 -11 0 -25 7 -33 16 -7 9 -22 14 -35 11 -14 -2 -25 2 -28 10 -4
10 3 12 37 6 182 -33 309 62 308 230 0 47 -7 75 -30 122 -28 57 -36 64 -90 89
-68 30 -131 34 -180 8z"/>
<path d="M4726 1867 c-24 -17 -18 -70 8 -75 16 -3 18 0 13 25 -4 15 -4 22 -1
16 7 -15 30 -17 39 -3 8 13 -13 50 -28 50 -7 0 -21 -6 -31 -13z"/>
<path d="M3020 1859 c-128 -53 -158 -268 -53 -371 56 -54 115 -78 196 -78 l68
0 -21 -30 c-12 -17 -30 -30 -42 -30 -12 0 -30 -8 -40 -17 -16 -14 -25 -15 -61
-6 -37 10 -44 9 -63 -8 -11 -10 -26 -19 -32 -19 -16 0 -16 37 0 42 6 2 8 10 4
16 -5 9 -13 9 -27 2 -22 -12 -26 -59 -7 -78 18 -18 63 -14 83 8 16 17 20 18
38 5 29 -20 53 -19 77 5 11 11 31 20 44 20 13 0 31 10 40 23 16 22 16 21 9
-13 -5 -19 -8 -67 -8 -107 0 -66 3 -75 30 -103 36 -38 82 -41 113 -7 12 13 22
30 22 39 0 19 -32 48 -53 48 -20 0 -41 -36 -33 -56 7 -17 33 -18 39 -1 4 9 6
9 6 -1 1 -7 -6 -15 -16 -19 -22 -8 -53 31 -53 67 0 23 4 27 20 23 13 -4 22 1
26 13 3 11 10 27 15 36 5 10 9 31 9 47 0 22 -6 31 -30 41 -35 15 -38 30 -9 56
27 24 52 72 44 84 -6 10 -90 7 -117 -5 -15 -6 -16 -2 -11 29 4 27 2 37 -11 42
-29 11 -65 -5 -72 -32 -10 -39 19 -64 75 -65 70 -1 21 -17 -55 -18 -102 -1
-190 56 -214 138 l-8 29 51 -5 c43 -4 57 -1 80 17 29 23 38 75 15 98 -9 9 -7
16 8 33 18 20 18 21 -1 35 -10 8 -26 14 -34 14 -11 0 -12 3 -4 11 15 15 46 4
94 -37 22 -19 45 -31 51 -28 12 7 48 -24 48 -42 0 -7 -9 -18 -20 -24 -26 -14
-27 -50 -1 -50 51 0 68 101 29 160 -13 18 -41 42 -62 54 -45 23 -138 31 -176
15z m166 -356 c-10 -10 -19 5 -10 18 6 11 8 11 12 0 2 -7 1 -15 -2 -18z"/>
<path d="M1464 1567 c-3 -9 3 -36 14 -59 16 -30 18 -46 11 -60 -13 -24 -4 -38
24 -38 12 0 42 -9 66 -21 45 -20 60 -15 61 19 0 6 8 12 18 12 27 0 62 29 62
51 0 15 -7 19 -35 19 -30 0 -37 5 -55 40 -18 35 -23 39 -40 30 -10 -5 -22 -15
-25 -20 -11 -18 -38 -11 -67 17 -24 23 -28 24 -34 10z m132 -131 c31 -23 13
-25 -36 -5 -43 17 -44 18 -14 18 16 1 39 -5 50 -13z"/>
<path d="M1826 1559 c-25 -20 -33 -50 -20 -83 9 -24 20 -19 43 19 15 25 27 35
46 35 27 0 33 18 13 38 -18 18 -52 14 -82 -9z"/>
<path d="M3302 1558 c-19 -19 -15 -26 22 -38 23 -7 39 -21 48 -41 20 -45 48
-33 48 22 0 48 -86 89 -118 57z"/>
<path d="M3575 1514 c-11 -28 -19 -35 -32 -29 -10 3 -30 9 -45 12 -39 8 -37
-19 3 -49 17 -13 42 -33 56 -46 17 -16 33 -22 52 -18 14 2 43 7 64 11 29 5 37
10 37 27 0 11 11 33 25 50 38 45 27 101 -13 65 -30 -27 -66 -30 -86 -8 -27 30
-44 26 -61 -15z"/>
<path d="M2596 1383 c-2 -16 -8 -50 -11 -78 -20 -154 -129 -395 -217 -482
l-32 -32 -29 25 c-51 43 -127 22 -127 -35 0 -16 -7 -31 -15 -35 -21 -8 -19
-24 5 -31 38 -12 20 -25 -35 -25 -48 0 -55 -2 -55 -20 0 -15 -7 -20 -27 -20
-38 0 -57 -14 -49 -35 10 -28 109 -16 189 23 62 31 207 159 207 184 0 5 13 23
29 38 39 40 81 118 121 224 19 49 36 84 38 77 7 -20 -8 -120 -19 -126 -17 -11
-9 -44 11 -50 29 -9 52 12 40 35 -6 10 -10 49 -9 87 0 77 6 71 39 -46 12 -40
47 -123 78 -185 91 -179 220 -289 354 -303 57 -6 103 9 95 30 -2 7 -14 11 -26
9 -30 -5 -81 17 -81 34 0 8 -18 15 -47 19 -27 3 -61 10 -78 14 -29 9 -29 9 12
10 47 1 61 14 41 38 -7 9 -11 26 -10 38 3 25 -31 52 -77 61 -24 5 -35 1 -57
-21 -37 -37 -47 -29 -100 75 -63 124 -94 220 -111 350 -8 63 -17 130 -19 148
-6 39 -21 42 -28 5z"/>
<path d="M1490 1380 c-8 -5 -34 -10 -57 -10 -42 0 -83 -25 -83 -50 0 -14 27
-13 36 1 4 7 23 9 49 6 37 -5 45 -3 69 21 14 16 26 31 26 35 0 10 -22 8 -40
-3z"/>
<path d="M1547 1373 c-21 -34 -41 -121 -38 -165 2 -26 20 -22 31 7 26 68 31
197 7 158z"/>
<path d="M3648 1303 c5 -100 18 -153 39 -153 13 0 14 10 8 78 -14 146 -53 209
-47 75z"/>
<path d="M3680 1371 c0 -15 51 -51 72 -51 10 0 35 -7 55 -15 41 -17 48 -15 39
13 -7 22 -18 28 -94 48 -62 16 -72 17 -72 5z"/>
<path d="M3591 1356 c-7 -8 -24 -17 -39 -21 -39 -10 -62 -34 -62 -66 0 -33 15
-46 27 -24 5 8 30 28 56 45 36 22 47 36 47 55 0 28 -12 32 -29 11z"/>
<path d="M1580 1334 c0 -18 14 -39 48 -70 52 -48 72 -55 72 -23 0 19 -94 118
-112 119 -5 0 -8 -12 -8 -26z"/>
<path d="M1500 1155 c0 -8 5 -15 10 -15 6 0 10 7 10 15 0 8 -4 15 -10 15 -5 0
-10 -7 -10 -15z"/>
<path d="M2550 950 c-12 -12 -19 -24 -16 -28 7 -12 110 -5 114 7 13 39 -64 55
-98 21z"/>
<path d="M2580 866 c0 -25 -4 -48 -10 -51 -33 -20 9 -73 43 -54 19 11 23 44 7
54 -5 3 -10 26 -10 51 0 32 -4 44 -15 44 -11 0 -15 -12 -15 -44z"/>
<path d="M2415 756 c-25 -25 -45 -82 -45 -128 0 -21 5 -28 20 -28 22 0 25 -12
10 -41 -8 -15 -7 -21 4 -25 22 -8 72 22 102 61 14 19 30 35 35 35 11 0 1 -26
-33 -81 -15 -25 -31 -61 -35 -79 l-6 -33 36 6 c34 5 37 4 47 -28 21 -65 46
-65 67 0 8 23 15 29 39 30 41 0 42 27 5 105 -17 35 -29 65 -27 67 2 2 23 -17
47 -41 42 -42 92 -66 106 -52 4 4 -1 20 -11 36 -17 29 -17 30 3 30 41 0 23
100 -27 153 -29 31 -91 38 -112 12 -17 -20 -47 -18 -95 5 -55 27 -100 26 -130
-4z"/>
</g>
</svg>
